<svg xmlns="http://www.w3.org/2000/svg" width="220" height="140" viewBox="0 0 220 140" fill="none" role="img" aria-label="AFES">
  <defs>
    <linearGradient id="g" x1="38" y1="20" x2="182" y2="120" gradientUnits="userSpaceOnUse">
      <stop stop-color="#1f4f93" stop-opacity="0.92"/>
      <stop offset="1" stop-color="#5b4a88" stop-opacity="0.92"/>
    </linearGradient>
    <linearGradient id="shine" x1="52" y1="30" x2="168" y2="110" gradientUnits="userSpaceOnUse">
      <stop stop-color="#ffffff" stop-opacity="0.65"/>
      <stop offset="0.55" stop-color="#ffffff" stop-opacity="0.08"/>
      <stop offset="1" stop-color="#ffffff" stop-opacity="0"/>
    </linearGradient>
  </defs>

  <rect x="32" y="22" width="156" height="96" rx="24" fill="url(#g)"/>
  <rect x="36" y="26" width="148" height="88" rx="22" fill="url(#shine)"/>

  <!-- minimal shield/flame mark -->
  <path d="M110 40c-10 7-18 18-18 31 0 14 9 25 18 29 9-4 18-15 18-29 0-13-8-24-18-31Z" fill="#fff" fill-opacity="0.9"/>
  <path d="M110 54c-5 4-9 10-9 17 0 8 4 14 9 16 5-2 9-8 9-16 0-7-4-13-9-17Z" fill="#0b2540" fill-opacity="0.18"/>

  <text x="110" y="114" text-anchor="middle" font-family="system-ui, -apple-system, Segoe UI, Roboto, Arial, sans-serif" font-size="18" font-weight="800" letter-spacing="0.18em" fill="#ffffff" fill-opacity="0.92">AFES</text>
</svg>
